<?xml version="1.0"?>
<svg xmlns="http://www.w3.org/2000/svg" height="512px" viewBox="0 -8 448 448" width="512px"><path d="m80 288h288v80h-288zm0 0" fill="#05b9bb"/><path d="m80 256h288v16h-288zm0 0" fill="#05b9bb"/><path d="m416 144c-17.671875 0-32 14.328125-32 32v256h64v-256c0-17.671875-14.328125-32-32-32zm0 0" fill="#05b9bb"/><path d="m32 144c-17.671875 0-32 14.328125-32 32v256h64v-256c0-17.671875-14.328125-32-32-32zm0 0" fill="#05b9bb"/><path d="m80 176v64h288v-64c.023438-20.320312 12.839844-38.425781 32-45.199219v-114.800781c-.027344-8.824219-7.175781-15.9726562-16-16h-320c-8.824219.0273438-15.972656 7.175781-16 16v114.800781c19.160156 6.773438 31.976562 24.878907 32 45.199219zm0 0" fill="#05b9bb"/></svg>
